<svg height="16" viewBox="0 0 16 16" width="16" xmlns="http://www.w3.org/2000/svg"><path d="m8 1a4.5 5 0 0 0 -4.4140625 4.03125 3 3 0 0 0 -2.5859375 2.96875 3 3 0 0 0 3 3h8a3 3 0 0 0 3-3 3 3 0 0 0 -2.589844-2.9667969 4.5 5 0 0 0 -4.410156-4.0332031zm-1 3h1v3h2v1h-3zm-3 8a1 1 0 0 0 -1 1 1 1 0 0 0 1 1 1 1 0 0 0 1-1 1 1 0 0 0 -1-1zm8 0a1 1 0 0 0 -1 1 1 1 0 0 0 1 1 1 1 0 0 0 1-1 1 1 0 0 0 -1-1zm-4 1a1 1 0 0 0 -1 1 1 1 0 0 0 1 1 1 1 0 0 0 1-1 1 1 0 0 0 -1-1z" fill="#fc9c9c" fill-opacity=".99608"/></svg>
